<svg xmlns="http://www.w3.org/2000/svg" viewBox="0 0 900 520">
<rect width="900" height="520" rx="28" fill="#171b1c"/>
<g fill="#252b2c" stroke="#a7adae" stroke-width="7"><rect x="100" y="155" width="220" height="205" rx="14"/><rect x="350" y="115" width="220" height="245" rx="14"/><rect x="600" y="155" width="190" height="205" rx="14"/></g>
<g fill="#e85b22"><rect x="135" y="190" width="40" height="130" rx="6"/><rect x="390" y="155" width="40" height="170" rx="6"/><rect x="645" y="190" width="40" height="130" rx="6"/></g>
<g stroke="#d59a5a" stroke-width="18"><path d="M55 410h790"/><path d="M55 435h790"/></g>
<g fill="#bbb"><circle cx="260" cy="400" r="26"/><circle cx="510" cy="400" r="26"/><circle cx="745" cy="400" r="26"/></g>
<path d="M135 260h120m145-15h120m125 15h100" stroke="#e7e9e9" stroke-width="5" stroke-dasharray="14 10"/>
<text x="60" y="65" fill="#fff" font-family="Arial" font-size="30" font-weight="700">SLOTTER + DIE CUTTER</text>
<text x="60" y="100" fill="#9aa1a2" font-family="Arial" font-size="18">Slotting • Creasing • Rotary die cutting</text>
</svg>